<svg width="14" height="20" viewBox="0 0 14 20" fill="none" xmlns="http://www.w3.org/2000/svg">
<path d="M7 0C5.14413 0.00211736 3.36489 0.740295 2.05259 2.05259C0.740295 3.36489 0.00211736 5.14413 0 7C0 12.353 6.036 18.45 6.293 18.707L7 19.414L7.707 18.707C7.964 18.45 14 12.353 14 7C13.9979 5.14413 13.2597 3.36489 11.9474 2.05259C10.6351 0.740295 8.85587 0.00211736 7 0ZM7 16.533C5.471 14.825 2 10.553 2 7C2 5.67392 2.52678 4.40215 3.46447 3.46447C4.40215 2.52678 5.67392 2 7 2C8.32608 2 9.59785 2.52678 10.5355 3.46447C11.4732 4.40215 12 5.67392 12 7C12 10.546 8.527 14.823 7 16.533Z" fill="white"/>
</svg>
